<mxfile host="app.diagrams.net" modified="2023-10-30T04:34:23.140Z" agent="Mozilla/5.0 (Windows NT 10.0; Win64; x64) AppleWebKit/537.36 (KHTML, like Gecko) Chrome/116.0.0.0 Safari/537.36" etag="f8kcJ5uSG7COzwAf_e5g" version="22.0.8" type="google">
  <diagram name="第 1 页" id="N3CGdc5LVz34Ido03TjC">
    <mxGraphModel grid="1" page="1" gridSize="10" guides="1" tooltips="1" connect="1" arrows="1" fold="1" pageScale="1" pageWidth="827" pageHeight="1169" math="0" shadow="0">
      <root>
        <mxCell id="0" />
        <mxCell id="1" parent="0" />
        <mxCell id="rSWg6zA-FwaaPk1wCGxj-1" value="索隆:&lt;br&gt;操作員" style="html=1;whiteSpace=wrap;fillColor=#fff2cc;strokeColor=#d6b656;" vertex="1" parent="1">
          <mxGeometry x="359" y="220" width="101" height="40" as="geometry" />
        </mxCell>
        <mxCell id="rSWg6zA-FwaaPk1wCGxj-2" value="703:&lt;br&gt;充值" style="html=1;whiteSpace=wrap;fillColor=#fff2cc;strokeColor=#d6b656;" vertex="1" parent="1">
          <mxGeometry x="360" y="350" width="100" height="40" as="geometry" />
        </mxCell>
        <mxCell id="rSWg6zA-FwaaPk1wCGxj-3" value="今日帳單:&lt;br&gt;CheceDay" style="html=1;whiteSpace=wrap;fillColor=#fff2cc;strokeColor=#d6b656;" vertex="1" parent="1">
          <mxGeometry x="560" y="350" width="90" height="40" as="geometry" />
        </mxCell>
        <mxCell id="rSWg6zA-FwaaPk1wCGxj-4" value="703:上機&lt;br&gt;online" style="html=1;whiteSpace=wrap;fillColor=#fff2cc;strokeColor=#d6b656;" vertex="1" parent="1">
          <mxGeometry x="160" y="340" width="100" height="40" as="geometry" />
        </mxCell>
        <mxCell id="rSWg6zA-FwaaPk1wCGxj-5" value="路飛:&lt;br&gt;管理員" style="html=1;whiteSpace=wrap;fillColor=#fff2cc;strokeColor=#d6b656;" vertex="1" parent="1">
          <mxGeometry x="520" y="230" width="90" height="40" as="geometry" />
        </mxCell>
        <mxCell id="rSWg6zA-FwaaPk1wCGxj-6" value="喬巴:&lt;br&gt;一般用戶" style="html=1;whiteSpace=wrap;fillColor=#fff2cc;strokeColor=#d6b656;" vertex="1" parent="1">
          <mxGeometry x="200" y="220" width="90" height="40" as="geometry" />
        </mxCell>
        <mxCell id="rSWg6zA-FwaaPk1wCGxj-7" value="big mom:&lt;br&gt;學生" style="html=1;whiteSpace=wrap;fillColor=#fff2cc;strokeColor=#d6b656;" vertex="1" parent="1">
          <mxGeometry x="170" y="110" width="90" height="40" as="geometry" />
        </mxCell>
        <mxCell id="rSWg6zA-FwaaPk1wCGxj-8" value="703:card&lt;br&gt;no" style="html=1;whiteSpace=wrap;fillColor=#fff2cc;strokeColor=#d6b656;" vertex="1" parent="1">
          <mxGeometry x="364.5" y="100" width="90" height="40" as="geometry" />
        </mxCell>
        <mxCell id="rSWg6zA-FwaaPk1wCGxj-17" value="" style="endArrow=none;html=1;rounded=0;exitX=1;exitY=0.5;exitDx=0;exitDy=0;entryX=0.25;entryY=1;entryDx=0;entryDy=0;fillColor=#a20025;strokeColor=#6F0000;" edge="1" parent="1" source="rSWg6zA-FwaaPk1wCGxj-6" target="rSWg6zA-FwaaPk1wCGxj-8">
          <mxGeometry width="50" height="50" relative="1" as="geometry">
            <mxPoint x="390" y="320" as="sourcePoint" />
            <mxPoint x="440" y="270" as="targetPoint" />
          </mxGeometry>
        </mxCell>
        <mxCell id="rSWg6zA-FwaaPk1wCGxj-18" value="" style="endArrow=none;html=1;rounded=0;exitX=1;exitY=0.5;exitDx=0;exitDy=0;fillColor=#a20025;strokeColor=#6F0000;entryX=0;entryY=0.5;entryDx=0;entryDy=0;" edge="1" parent="1" source="rSWg6zA-FwaaPk1wCGxj-7" target="rSWg6zA-FwaaPk1wCGxj-8">
          <mxGeometry width="50" height="50" relative="1" as="geometry">
            <mxPoint x="250" y="150" as="sourcePoint" />
            <mxPoint x="360" y="120" as="targetPoint" />
          </mxGeometry>
        </mxCell>
        <mxCell id="rSWg6zA-FwaaPk1wCGxj-19" value="" style="endArrow=none;html=1;rounded=0;entryX=0.5;entryY=1;entryDx=0;entryDy=0;fillColor=#a20025;strokeColor=#6F0000;" edge="1" parent="1" source="rSWg6zA-FwaaPk1wCGxj-1" target="rSWg6zA-FwaaPk1wCGxj-8">
          <mxGeometry width="50" height="50" relative="1" as="geometry">
            <mxPoint x="330" y="240" as="sourcePoint" />
            <mxPoint x="427" y="140" as="targetPoint" />
          </mxGeometry>
        </mxCell>
        <mxCell id="rSWg6zA-FwaaPk1wCGxj-20" value="" style="endArrow=none;html=1;rounded=0;exitX=1;exitY=0.5;exitDx=0;exitDy=0;entryX=0.5;entryY=0;entryDx=0;entryDy=0;fillColor=#a20025;strokeColor=#6F0000;" edge="1" parent="1" target="rSWg6zA-FwaaPk1wCGxj-5">
          <mxGeometry width="50" height="50" relative="1" as="geometry">
            <mxPoint x="454.5" y="140" as="sourcePoint" />
            <mxPoint x="551.5" y="40" as="targetPoint" />
          </mxGeometry>
        </mxCell>
        <mxCell id="rSWg6zA-FwaaPk1wCGxj-21" value="" style="endArrow=none;html=1;rounded=0;exitX=0.412;exitY=-0.05;exitDx=0;exitDy=0;entryX=0.5;entryY=1;entryDx=0;entryDy=0;fillColor=#a20025;strokeColor=#6F0000;exitPerimeter=0;" edge="1" parent="1" source="rSWg6zA-FwaaPk1wCGxj-4" target="rSWg6zA-FwaaPk1wCGxj-6">
          <mxGeometry width="50" height="50" relative="1" as="geometry">
            <mxPoint x="180" y="340" as="sourcePoint" />
            <mxPoint x="277" y="240" as="targetPoint" />
          </mxGeometry>
        </mxCell>
        <mxCell id="rSWg6zA-FwaaPk1wCGxj-22" value="" style="endArrow=none;html=1;rounded=0;exitX=0.7;exitY=0;exitDx=0;exitDy=0;entryX=0.5;entryY=1;entryDx=0;entryDy=0;fillColor=#a20025;strokeColor=#6F0000;exitPerimeter=0;" edge="1" parent="1" source="rSWg6zA-FwaaPk1wCGxj-2" target="rSWg6zA-FwaaPk1wCGxj-1">
          <mxGeometry width="50" height="50" relative="1" as="geometry">
            <mxPoint x="400" y="350" as="sourcePoint" />
            <mxPoint x="497" y="250" as="targetPoint" />
          </mxGeometry>
        </mxCell>
        <mxCell id="rSWg6zA-FwaaPk1wCGxj-23" value="" style="endArrow=none;html=1;rounded=0;exitX=0.591;exitY=-0.04;exitDx=0;exitDy=0;entryX=0.25;entryY=1;entryDx=0;entryDy=0;fillColor=#a20025;strokeColor=#6F0000;exitPerimeter=0;" edge="1" parent="1" source="rSWg6zA-FwaaPk1wCGxj-3">
          <mxGeometry width="50" height="50" relative="1" as="geometry">
            <mxPoint x="480" y="370" as="sourcePoint" />
            <mxPoint x="577" y="270" as="targetPoint" />
          </mxGeometry>
        </mxCell>
        <mxCell id="rSWg6zA-FwaaPk1wCGxj-24" value="1" style="text;html=1;align=center;verticalAlign=middle;resizable=0;points=[];autosize=1;strokeColor=none;fillColor=none;" vertex="1" parent="1">
          <mxGeometry x="260" y="130" width="30" height="30" as="geometry" />
        </mxCell>
        <mxCell id="rSWg6zA-FwaaPk1wCGxj-25" value="1" style="text;html=1;align=center;verticalAlign=middle;resizable=0;points=[];autosize=1;strokeColor=none;fillColor=none;" vertex="1" parent="1">
          <mxGeometry x="260" y="100" width="30" height="30" as="geometry" />
        </mxCell>
      </root>
    </mxGraphModel>
  </diagram>
</mxfile>
